# xmcd
#
# Track frame offsets: 
#        150
#        14082
#        31530
#        34615
#        44580
#        50077
#        79810
#        91385
#        107280
#        121940
#        138912
#        164012
#
# Disc length: 2223 seconds
#
# Revision: 0
# Processed by: cddbd v1.5PL3 Copyright (c) Steve Scherf et al.
# Submitted via: ExactAudioCopy v0.95a5
#
DISCID=9608ad0c
DTITLE=Walter Horton - With Hot Cottage
DYEAR=1972
DGENRE=Blues
TTITLE0=Big Walter's Boogie
TTITLE1=Hard Hearted woman
TTITLE2=John Henry
TTITLE3=Hound Dog
TTITLE4=Interview
TTITLE5=They Call Me Big Walter
TTITLE6=Looka Here
TTITLE7=Shakey's Edmonton Blues
TTITLE8=Sugar Mama
TTITLE9=Joe Chicago
TTITLE10=Worried Worried
TTITLE11=Turkey in the Straw
EXTD=
EXTT0=
EXTT1=
EXTT2=
EXTT3=
EXTT4=
EXTT5=
EXTT6=
EXTT7=
EXTT8=
EXTT9=
EXTT10=
EXTT11=
PLAYORDER=
